<?xml version="1.0" standalone="no"?>
<!DOCTYPE svg PUBLIC "-//W3C//DTD SVG 20010904//EN"
 "http://www.w3.org/TR/2001/REC-SVG-20010904/DTD/svg10.dtd">
<svg version="1.0" xmlns="http://www.w3.org/2000/svg"
 width="400.000000pt" height="400.000000pt" viewBox="0 0 400.000000 400.000000"
 preserveAspectRatio="xMidYMid meet">
<metadata>
Created by potrace 1.11, written by Peter Selinger 2001-2013
</metadata>
<g transform="translate(0.000000,400.000000) scale(0.100000,-0.100000)"
fill="#000000" stroke="none">
<path d="M0 2000 l0 -2000 2000 0 2000 0 0 2000 0 2000 -2000 0 -2000 0 0
-2000z m2066 1457 c0 -75 4 -89 39 -157 34 -65 86 -144 187 -279 48 -64 124
-195 141 -241 53 -146 33 -313 -53 -459 -16 -29 -30 -55 -30 -59 0 -15 -124
-160 -229 -267 -172 -176 -219 -239 -256 -344 l-13 -36 -7 38 c-15 77 11 160
117 372 124 248 148 314 155 425 5 75 2 93 -21 154 -14 38 -35 83 -45 100 -11
17 -44 81 -74 141 -137 276 -149 383 -61 524 26 39 140 171 149 171 0 0 0 -37
1 -83z m-193 -672 c41 -43 85 -143 99 -225 20 -117 -17 -270 -101 -421 -135
-242 -154 -346 -100 -537 21 -74 80 -194 112 -229 33 -36 4 -27 -66 21 -182
125 -271 223 -320 352 -43 111 -47 133 -48 229 0 165 45 265 190 418 55 59
111 126 125 150 36 61 59 159 54 233 -4 70 -3 70 55 9z m662 -549 c20 -101 20
-272 0 -351 -34 -131 -69 -177 -205 -274 -92 -65 -171 -141 -188 -181 -9 -19
-18 -60 -21 -90 l-6 -55 -47 60 c-93 117 -130 272 -93 389 20 63 51 98 228
261 145 132 218 225 254 320 l28 75 17 -37 c9 -21 24 -73 33 -117z m-1038
-787 c12 -10 19 -89 8 -89 -2 0 -25 10 -50 22 -43 21 -45 24 -45 65 l0 43 37
-15 c20 -9 42 -20 50 -26z m-32 -111 l45 -22 -2 -271 -3 -270 -47 -3 -48 -3 0
295 c0 163 2 296 5 296 2 0 25 -10 50 -22z m-835 -71 c19 -9 43 -22 52 -29 14
-10 25 -8 63 10 l45 22 0 -250 0 -250 -46 0 c-37 0 -47 4 -51 19 -5 19 -7 18
-56 -5 -171 -79 -367 51 -367 245 0 73 51 167 114 209 26 17 62 36 80 42 43
13 124 7 166 -13z m586 -8 l59 -31 42 21 c30 14 43 17 43 8 1 -29 2 -164 1
-320 l-1 -168 -47 3 c-39 2 -48 6 -47 21 2 21 4 22 -52 -8 -126 -67 -304 4
-358 143 -37 97 -7 225 70 290 93 79 193 93 290 41z m708 1 c26 -14 61 -38 76
-53 l28 -29 29 27 c41 40 141 85 188 85 97 0 180 -51 226 -139 28 -53 29 -57
29 -212 l0 -159 -45 0 -45 0 0 143 c0 160 -10 193 -70 234 -66 46 -144 39
-203 -16 -52 -47 -57 -68 -57 -221 l0 -140 -50 0 -50 0 0 143 c0 139 -1 144
-27 185 -30 46 -90 82 -138 82 -42 0 -108 -35 -136 -72 -23 -31 -24 -42 -27
-185 l-3 -153 -50 0 -49 0 0 250 0 250 49 -24 c45 -23 50 -24 71 -9 69 49 171
54 254 13z m998 17 c9 -1 15 -4 13 -8 -3 -3 6 -11 18 -18 24 -13 85 -7 102 10
5 5 13 9 17 9 5 0 7 -111 6 -247 l-3 -248 -43 -3 c-36 -3 -44 0 -49 16 -5 19
-6 19 -60 -5 -107 -49 -236 -17 -311 76 -44 55 -54 85 -55 161 0 125 70 221
193 261 21 7 64 6 172 -4z m588 -23 l52 -28 40 21 c28 16 40 18 44 10 2 -7 3
-118 2 -247 l-3 -235 -47 -3 c-42 -3 -48 -1 -48 17 0 20 -1 19 -52 -4 -134
-63 -296 2 -354 140 -18 44 -18 153 0 196 64 150 227 209 366 133z m-1648
-414 c2 -14 7 -28 12 -31 5 -4 4 -13 -3 -20 -6 -8 -19 -23 -27 -34 -15 -19
-15 -19 -4 3 8 17 8 22 -2 23 -10 0 -10 2 0 6 10 4 12 23 8 77 -4 54 -3 63 4
36 5 -19 10 -46 12 -60z m-45 -66 c-3 -3 -12 -4 -19 -1 -8 3 -5 6 6 6 11 1 17
-2 13 -5z m-394 -111 c-7 -2 -19 -2 -25 0 -7 3 -2 5 12 5 14 0 19 -2 13 -5z
m-1007 -80 c19 -72 19 -72 44 25 16 61 35 53 56 -25 10 -36 19 -62 20 -57 28
98 37 124 45 124 13 0 11 -17 -12 -97 -13 -42 -27 -73 -35 -73 -7 0 -20 26
-30 60 -9 33 -20 57 -25 55 -4 -3 -11 -25 -14 -49 -8 -51 -18 -70 -35 -64 -15
5 -38 68 -46 132 -10 70 10 52 32 -31z m402 71 c34 -9 26 -24 -12 -24 -38 0
-49 -10 -40 -34 4 -10 18 -16 35 -16 16 0 29 -4 29 -10 0 -5 -13 -10 -30 -10
-25 0 -30 -4 -30 -24 0 -21 6 -25 33 -28 47 -4 35 -23 -15 -23 l-43 0 -3 74
c-2 41 -1 80 2 88 6 14 36 17 74 7z m686 0 c26 -10 18 -24 -14 -24 -40 0 -40
-29 0 -52 39 -22 46 -42 26 -73 -22 -33 -86 -33 -86 1 0 11 6 11 27 3 21 -8
30 -6 42 7 15 15 14 17 -3 27 -70 44 -83 74 -44 101 25 18 30 19 52 10z m290
-15 c22 -17 26 -28 26 -69 0 -41 -4 -52 -26 -69 -35 -28 -69 -26 -99 4 -36 35
-34 88 4 126 35 34 59 36 95 8z m241 -129 c25 0 35 -4 35 -16 0 -12 -9 -14
-42 -12 l-43 3 -3 74 c-2 41 1 81 5 90 5 10 9 -15 11 -61 l3 -78 34 0z m205
75 c0 -67 15 -89 50 -77 25 8 30 24 30 90 0 72 19 86 21 15 2 -80 -1 -97 -23
-115 -24 -21 -57 -23 -83 -4 -30 22 -35 180 -5 161 5 -3 10 -35 10 -70z m538
-21 c-2 -44 -7 -79 -13 -79 -11 0 -20 139 -10 163 13 36 26 -9 23 -84z m276
75 c22 -17 26 -28 26 -69 0 -41 -4 -52 -26 -69 -54 -42 -111 -15 -121 56 -5
37 -2 46 25 73 36 35 59 38 96 9z m540 15 c29 -11 18 -31 -14 -26 -25 4 -30 1
-30 -16 0 -12 11 -24 30 -32 71 -29 39 -115 -36 -96 -13 4 -24 13 -24 22 0 12
4 13 20 4 14 -8 26 -8 41 0 26 14 22 23 -21 52 -43 29 -50 60 -18 82 25 18 29
19 52 10z m-2506 -35 c2 -17 11 -29 25 -34 l22 -7 -22 -6 c-16 -5 -20 -11 -14
-21 16 -24 -9 -60 -45 -67 -59 -11 -64 -4 -64 86 l0 81 48 -3 c43 -3 47 -5 50
-29z m1522 21 c0 -5 -11 -10 -25 -10 -24 0 -25 -2 -25 -76 0 -56 -3 -75 -12
-72 -9 3 -14 30 -16 76 -3 63 -5 72 -22 72 -10 0 -22 5 -25 10 -4 6 18 10 59
10 37 0 66 -4 66 -10z m697 -48 l32 -57 1 58 c0 44 3 57 15 57 13 0 15 -14 13
-82 -2 -54 -7 -83 -16 -86 -6 -2 -15 5 -20 15 -4 10 -20 41 -37 68 l-30 50 -3
-68 c-4 -94 -22 -75 -22 24 0 69 2 79 18 79 10 0 29 -22 49 -58z m-3132 -102
c3 -5 -1 -10 -10 -10 -9 0 -13 5 -10 10 3 6 8 10 10 10 2 0 7 -4 10 -10z m135
-4 c0 -3 -4 -8 -10 -11 -5 -3 -10 -1 -10 4 0 6 5 11 10 11 6 0 10 -2 10 -4z
m260 -16 c0 -5 -8 -10 -17 -10 -15 0 -16 2 -3 10 19 12 20 12 20 0z"/>
<path d="M510 1184 c-99 -33 -135 -76 -134 -160 2 -95 60 -155 152 -156 62 -1
94 13 128 57 56 74 37 188 -39 233 -38 22 -84 33 -107 26z"/>
<path d="M1060 1178 c-83 -23 -129 -96 -116 -183 25 -165 269 -174 315 -11 31
113 -84 226 -199 194z m80 -98 c-20 -13 -33 -13 -25 0 3 6 14 10 23 10 15 0
15 -2 2 -10z"/>
<path d="M2734 1161 c-64 -39 -92 -124 -64 -196 43 -112 198 -136 273 -43 62
77 40 196 -45 239 -48 25 -123 25 -164 0z"/>
<path d="M3308 1159 c-117 -61 -95 -249 33 -287 138 -40 252 93 189 223 -38
79 -139 108 -222 64z"/>
<path d="M1710 611 c-18 -35 -12 -79 14 -96 48 -31 90 26 67 88 -8 21 -17 27
-40 27 -20 0 -34 -7 -41 -19z"/>
<path d="M2971 611 c-19 -35 -13 -79 13 -96 47 -31 91 23 70 84 -12 34 -67 43
-83 12z"/>
<path d="M1020 605 c0 -26 14 -31 39 -16 19 12 6 41 -19 41 -15 0 -20 -7 -20
-25z"/>
<path d="M1020 535 c0 -20 5 -25 25 -25 29 0 45 28 24 41 -27 17 -49 10 -49
-16z"/>
</g>
</svg>
